<svg width="441" height="120" viewBox="0 0 441 120" fill="none" xmlns="http://www.w3.org/2000/svg">
<path d="M105.963 98.5673C97.8181 108.274 86.8097 115.152 74.5154 118.218C62.221 121.283 49.2718 120.378 37.5236 115.631C25.7755 110.885 15.8316 102.541 9.11716 91.7952C2.40268 81.0498 -0.737668 68.4545 0.146199 55.8146C1.03007 43.1747 5.89277 31.1391 14.0374 21.4328C22.182 11.7264 33.1903 4.84761 45.4847 1.78228C57.7791 -1.28306 70.7283 -0.37756 82.4764 4.36899C94.2246 9.11554 104.168 17.4595 110.883 28.2049L90.5298 40.9229C89.6453 39.5075 88.6598 38.1493 87.5776 36.8597C82.6909 31.0359 76.0859 26.9086 68.7092 25.0694C61.3326 23.2302 53.5631 23.7735 46.5142 26.6214C39.4653 29.4693 33.499 34.4757 29.4703 40.9229L44.7352 50.4615C46.7495 47.2379 49.7327 44.7347 53.2571 43.3107C56.7816 41.8868 60.6663 41.6151 64.3546 42.5347C68.043 43.4543 71.3455 45.5179 73.7888 48.4299C76.2322 51.3418 77.691 54.9524 77.9562 58.7444C78.2214 62.5364 77.2793 66.315 75.2649 69.5386C73.2506 72.7622 70.2674 75.2654 66.743 76.6893C63.2185 78.1133 59.3338 78.385 55.6455 77.4654C51.9571 76.5458 48.6546 74.4821 46.2112 71.5702L32.4224 83.1404C37.3092 88.9642 43.9142 93.0915 51.2909 94.9307C58.6675 96.7699 66.437 96.2266 73.4859 93.3787C78.9738 91.1614 83.8056 87.6357 87.5777 83.1404L105.963 98.5673Z" fill="#00D5C8"/>
<path d="M105.963 98.5673C97.8181 108.274 86.8097 115.152 74.5154 118.218C62.221 121.283 49.2718 120.378 37.5236 115.631C25.7755 110.885 15.8316 102.541 9.11716 91.7952C2.40268 81.0498 -0.737668 68.4545 0.146199 55.8146C1.03007 43.1747 5.89277 31.1391 14.0374 21.4328C22.182 11.7264 33.1903 4.84761 45.4847 1.78228C57.7791 -1.28306 70.7283 -0.37756 82.4764 4.36899C94.2246 9.11554 104.168 17.4595 110.883 28.2049L90.5298 40.9229C89.6453 39.5075 88.6598 38.1493 87.5776 36.8597C82.6909 31.0359 76.0859 26.9086 68.7092 25.0694C61.3326 23.2302 53.5631 23.7735 46.5142 26.6214C39.4653 29.4693 33.499 34.4757 29.4703 40.9229L44.7352 50.4615C46.7495 47.2379 49.7327 44.7347 53.2571 43.3107C56.7816 41.8868 60.6663 41.6151 64.3546 42.5347C68.043 43.4543 71.3455 45.5179 73.7888 48.4299C76.2322 51.3418 77.691 54.9524 77.9562 58.7444C78.2214 62.5364 77.2793 66.315 75.2649 69.5386C73.2506 72.7622 70.2674 75.2654 66.743 76.6893C63.2185 78.1133 59.3338 78.385 55.6455 77.4654C51.9571 76.5458 48.6546 74.4821 46.2112 71.5702L32.4224 83.1404C37.3092 88.9642 43.9142 93.0915 51.2909 94.9307C58.6675 96.7699 66.437 96.2266 73.4859 93.3787C78.9738 91.1614 83.8056 87.6357 87.5777 83.1404L105.963 98.5673Z" fill="url(#paint0_linear)"/>
<path d="M168.24 26.7601C167.16 18.2401 160.56 13.0801 150.9 13.0801C139.02 13.0801 131.58 21.1201 131.58 33.9601C131.58 46.7401 139.14 54.9001 150.96 54.9001C160.86 54.9001 167.64 49.2601 168.72 40.2001H159.18C158.1 45.0001 155.34 47.2801 150.72 47.2801C144.36 47.2801 140.58 42.3001 140.58 33.9601C140.58 25.5601 144.36 20.7001 150.96 20.7001C155.22 20.7001 158.16 22.9201 159.06 26.7601H168.24Z" fill="#2E5A6D"/>
<path d="M174.78 25.02V54H183.3V45.84C183.3 40.26 183.6 37.56 184.44 35.64C185.4 33.48 187.8 32.16 190.74 32.16C191.46 32.16 191.88 32.16 192.9 32.28V24.24C186.72 24.18 184.56 25.5 182.88 30.18L183.12 25.02H174.78Z" fill="#2E5A6D"/>
<path d="M224.5 42C224.5 37.98 224.08 35.28 223.06 32.76C220.9 27.3 216.28 24.24 210.16 24.24C201.4 24.24 195.34 30.48 195.34 39.54C195.34 48.66 201.28 54.78 210.22 54.78C217.12 54.78 222.52 51.18 224.14 45.54H215.5C214.36 47.34 212.74 48.12 210.46 48.12C206.8 48.12 204.46 45.96 203.92 42H224.5ZM203.98 36C204.64 32.58 206.8 30.72 210.1 30.72C213.4 30.72 215.38 32.58 215.74 36H203.98Z" fill="#2E5A6D"/>
<path d="M237.46 34.14C237.82 31.8 239.5 30.72 242.62 30.72C245.38 30.72 247.06 31.74 247.06 33.36C247.06 34.56 246.4 35.04 244.48 35.34L239.86 36.12C231.76 37.44 228.34 40.26 228.34 45.72C228.34 51.18 232.6 54.78 239.02 54.78C242.44 54.78 244.48 54.06 247.3 51.72C247.6 52.8 247.6 52.98 247.96 54H256.66C255.7 52.56 255.58 52.14 255.58 49.02V35.7C255.58 31.44 254.8 29.1 252.7 27.24C250.42 25.26 247.06 24.24 242.68 24.24C234.52 24.24 230.38 27.48 229.84 34.14H237.46ZM247.3 44.64C245.92 47.1 243.88 48.3 241.06 48.3C238.36 48.3 236.74 47.16 236.74 45.24C236.74 43.5 238.06 42.48 241.12 41.76L244.18 41.1C245.62 40.8 246.4 40.56 247.3 40.2V44.64Z" fill="#2E5A6D"/>
<path d="M277.48 25.3802H272.26V16.2002H263.74V25.3802H259.66V31.3802H263.74V44.5802C263.74 49.0802 264.1 50.6402 265.42 52.0802C266.68 53.4602 268.54 54.0002 272.26 54.0002H277.48V47.5802H274.42C272.44 47.5802 272.26 47.2202 272.26 42.6602V31.3802H277.48V25.3802Z" fill="#2E5A6D"/>
<path d="M296.7 24.24C287.7 24.24 281.34 30.54 281.34 39.48C281.34 48.48 287.7 54.78 296.7 54.78C305.64 54.78 312.12 48.48 312.12 39.72C312.12 30.48 305.88 24.24 296.7 24.24ZM296.7 31.02C301.14 31.02 303.54 34.08 303.54 39.66C303.54 44.94 301.02 48 296.76 48C292.38 48 289.92 44.94 289.92 39.48C289.92 34.08 292.38 31.02 296.7 31.02Z" fill="#2E5A6D"/>
<path d="M316.78 25.02V54H325.3V45.84C325.3 40.26 325.6 37.56 326.44 35.64C327.4 33.48 329.8 32.16 332.74 32.16C333.46 32.16 333.88 32.16 334.9 32.28V24.24C328.72 24.18 326.56 25.5 324.88 30.18L325.12 25.02H316.78Z" fill="#2E5A6D"/>
<path d="M364.54 33.72C363.76 27.6 359.26 24.24 351.82 24.24C344.08 24.24 339.46 27.78 339.46 33.6C339.46 38.22 341.92 40.56 348.28 41.94L353.56 43.14C355.84 43.68 356.8 44.4 356.8 45.78C356.8 47.52 355.06 48.6 352.36 48.6C348.94 48.6 347.14 47.34 346.66 44.58H338.68C339.16 51 344.14 54.78 352.18 54.78C360.22 54.78 365.2 50.94 365.2 44.82C365.2 42.48 364.42 40.32 363.04 39C361.78 37.68 359.98 36.9 356.44 36.18L351.1 35.04C348.4 34.44 347.56 33.9 347.56 32.82C347.56 31.38 349.18 30.42 351.64 30.42C354.46 30.42 356.2 31.56 356.56 33.72H364.54Z" fill="#2E5A6D"/>
<path d="M377.26 30.06L378.94 13.98H368.62L370.36 30.06H377.26Z" fill="#2E5A6D"/>
<path d="M168.24 81.7601C167.16 73.2401 160.56 68.0801 150.9 68.0801C139.02 68.0801 131.58 76.1201 131.58 88.9601C131.58 101.74 139.14 109.9 150.96 109.9C160.86 109.9 167.64 104.26 168.72 95.2001H159.18C158.1 100 155.34 102.28 150.72 102.28C144.36 102.28 140.58 97.3001 140.58 88.9601C140.58 80.5601 144.36 75.7001 150.96 75.7001C155.22 75.7001 158.16 77.9201 159.06 81.7601H168.24Z" fill="#2E5A6D"/>
<path d="M187.7 79.24C178.7 79.24 172.34 85.54 172.34 94.48C172.34 103.48 178.7 109.78 187.7 109.78C196.64 109.78 203.12 103.48 203.12 94.72C203.12 85.48 196.88 79.24 187.7 79.24ZM187.7 86.02C192.14 86.02 194.54 89.08 194.54 94.66C194.54 99.94 192.02 103 187.76 103C183.38 103 180.92 99.94 180.92 94.48C180.92 89.08 183.38 86.02 187.7 86.02Z" fill="#2E5A6D"/>
<path d="M207.78 80.0202V109H216.3V92.7402C216.3 90.2202 216.6 89.0202 217.56 87.9402C218.46 86.9202 219.78 86.3802 221.22 86.3802C222.72 86.3802 223.98 86.9802 224.7 88.0602C225.42 89.1402 225.6 90.2802 225.6 93.2202V109H234.12V90.2202C234.12 83.3802 230.28 79.1802 223.98 79.1802C220.98 79.1802 219.18 79.9602 216.06 82.8402V80.0202H207.78Z" fill="#2E5A6D"/>
<path d="M255.6 80.38H250.08V78.34C250.08 76.66 251.1 75.76 253.08 75.76H255.6V68.98H250.92C244.62 68.98 241.56 72.04 241.56 78.28V80.38H237.54V86.38H241.56V109H250.08V86.38H255.6V80.38Z" fill="#2E5A6D"/>
<path d="M288.5 97C288.5 92.98 288.08 90.28 287.06 87.76C284.9 82.3 280.28 79.24 274.16 79.24C265.4 79.24 259.34 85.48 259.34 94.54C259.34 103.66 265.28 109.78 274.22 109.78C281.12 109.78 286.52 106.18 288.14 100.54H279.5C278.36 102.34 276.74 103.12 274.46 103.12C270.8 103.12 268.46 100.96 267.92 97H288.5ZM267.98 91C268.64 87.58 270.8 85.72 274.1 85.72C277.4 85.72 279.38 87.58 279.74 91H267.98Z" fill="#2E5A6D"/>
<path d="M292.78 80.02V109H301.3V100.84C301.3 95.26 301.6 92.56 302.44 90.64C303.4 88.48 305.8 87.16 308.74 87.16C309.46 87.16 309.88 87.16 310.9 87.28V79.24C304.72 79.18 302.56 80.5 300.88 85.18L301.12 80.02H292.78Z" fill="#2E5A6D"/>
<path d="M343.5 97C343.5 92.98 343.08 90.28 342.06 87.76C339.9 82.3 335.28 79.24 329.16 79.24C320.4 79.24 314.34 85.48 314.34 94.54C314.34 103.66 320.28 109.78 329.22 109.78C336.12 109.78 341.52 106.18 343.14 100.54H334.5C333.36 102.34 331.74 103.12 329.46 103.12C325.8 103.12 323.46 100.96 322.92 97H343.5ZM322.98 91C323.64 87.58 325.8 85.72 329.1 85.72C332.4 85.72 334.38 87.58 334.74 91H322.98Z" fill="#2E5A6D"/>
<path d="M348.78 80.0202V109H357.3V92.7402C357.3 90.2202 357.6 89.0202 358.56 87.9402C359.46 86.9202 360.78 86.3802 362.22 86.3802C363.72 86.3802 364.98 86.9802 365.7 88.0602C366.42 89.1402 366.6 90.2802 366.6 93.2202V109H375.12V90.2202C375.12 83.3802 371.28 79.1802 364.98 79.1802C361.98 79.1802 360.18 79.9602 357.06 82.8402V80.0202H348.78Z" fill="#2E5A6D"/>
<path d="M407.3 90.46C406.76 83.56 401.6 79.24 394.04 79.24C384.86 79.24 379.34 85 379.34 94.6C379.34 103.9 384.92 109.78 393.74 109.78C401.42 109.78 406.46 105.64 407.66 98.32L399.38 97.9C398.72 101.32 397.04 102.88 393.98 102.88C390.02 102.88 387.92 99.94 387.92 94.36C387.92 89.08 390.02 86.14 393.92 86.14C396.8 86.14 398.72 87.7 399.2 90.46H407.3Z" fill="#2E5A6D"/>
<path d="M440.5 97C440.5 92.98 440.08 90.28 439.06 87.76C436.9 82.3 432.28 79.24 426.16 79.24C417.4 79.24 411.34 85.48 411.34 94.54C411.34 103.66 417.28 109.78 426.22 109.78C433.12 109.78 438.52 106.18 440.14 100.54H431.5C430.36 102.34 428.74 103.12 426.46 103.12C422.8 103.12 420.46 100.96 419.92 97H440.5ZM419.98 91C420.64 87.58 422.8 85.72 426.1 85.72C429.4 85.72 431.38 87.58 431.74 91H419.98Z" fill="#2E5A6D"/>
<defs>
<linearGradient id="paint0_linear" x1="55" y1="138" x2="55" y2="-11" gradientUnits="userSpaceOnUse">
<stop stop-color="#FFF73C"/>
<stop offset="1" stop-color="white" stop-opacity="0"/>
</linearGradient>
</defs>
</svg>
